<svg width="32" height="32" viewBox="0 0 32 32" fill="none" xmlns="http://www.w3.org/2000/svg">
<path d="M27.1062 22.0006L21.1043 15.9994L27.1043 9.99872C27.1634 9.93962 27.2103 9.86945 27.2423 9.79222C27.2743 9.715 27.2908 9.63223 27.2908 9.54864C27.2908 9.46505 27.2743 9.38228 27.2423 9.30506C27.2103 9.22783 27.1634 9.15766 27.1043 9.09856L22.9011 4.8944C22.7817 4.77501 22.6197 4.70793 22.4509 4.70793C22.282 4.70793 22.1201 4.77501 22.0006 4.8944L15.9997 10.895L9.99968 4.8944C9.76096 4.65536 9.33824 4.65536 9.0992 4.8944L4.89504 9.09792C4.7758 9.21742 4.70884 9.37934 4.70884 9.54816C4.70884 9.71698 4.7758 9.8789 4.89504 9.9984L10.896 15.9994L4.89408 22.001C4.77492 22.1205 4.70801 22.2824 4.70801 22.4512C4.70801 22.62 4.77492 22.7819 4.89408 22.9014L9.0976 27.1053C9.15669 27.1645 9.22687 27.2114 9.30413 27.2435C9.38138 27.2755 9.4642 27.292 9.54784 27.292C9.63148 27.292 9.7143 27.2755 9.79155 27.2435C9.86881 27.2114 9.93899 27.1645 9.99808 27.1053L15.9997 21.1037L22.0016 27.105C22.1261 27.2291 22.2883 27.2915 22.4518 27.2915C22.6154 27.2915 22.7779 27.2291 22.9024 27.105L27.1066 22.9011C27.2259 22.7817 27.2929 22.6197 27.2929 22.4508C27.2928 22.2819 27.2257 22.12 27.1062 22.0006V22.0006Z" fill="#E4E5E6"/>
</svg>
