<svg width="29" height="28" viewBox="0 0 29 28" fill="none" xmlns="http://www.w3.org/2000/svg">
<path d="M29 10.41L27.59 8.99999L24 12.59L20.41 8.99999L19 10.41L22.59 14L19 17.59L20.41 19L24 15.41L27.59 19L29 17.59L25.41 14L29 10.41ZM16 28C15.8677 27.9994 15.7368 27.9726 15.6149 27.9211C15.4931 27.8697 15.3826 27.7945 15.29 27.7L7.67 20H1C0.734784 20 0.48043 19.8946 0.292893 19.7071C0.105357 19.5196 0 19.2652 0 19V8.99999C0 8.73478 0.105357 8.48042 0.292893 8.29289C0.48043 8.10535 0.734784 7.99999 1 7.99999H7.67L15.29 0.299994C15.4774 0.113743 15.7308 0.00920105 15.995 0.00920105C16.2592 0.00920105 16.5126 0.113743 16.7 0.299994C16.8884 0.484624 16.9962 0.736225 17 0.999994V27C17 27.2652 16.8946 27.5196 16.7071 27.7071C16.5196 27.8946 16.2652 28 16 28Z" fill="#E4E5E6"/>
</svg>
