<svg width="32" height="32" viewBox="0 0 32 32" fill="none" xmlns="http://www.w3.org/2000/svg">
<path d="M28.4048 24.7331V7.22272L28.4051 7.22112L28.4048 7.21952V7.14432H28.3971C28.3786 6.94374 28.2859 6.75729 28.1372 6.62142C27.9884 6.48555 27.7944 6.41002 27.593 6.4096C27.5834 6.4096 27.5744 6.41216 27.5651 6.41248H26.103C26.0803 6.41056 26.0582 6.40576 26.0349 6.40576C25.8196 6.40585 25.6131 6.49141 25.4609 6.64364C25.3087 6.79587 25.2231 7.00231 25.223 7.2176C25.223 7.25504 25.2291 7.2912 25.2342 7.32736V14.7325L14.5651 8.57248C14.489 8.49728 14.3926 8.44595 14.2878 8.4248C14.1829 8.40366 14.0742 8.41362 13.9749 8.45347C13.8756 8.49332 13.7901 8.56131 13.729 8.64908C13.6679 8.73686 13.6337 8.84059 13.6307 8.94752H13.6288V13.8272L4.52736 8.57216C4.45128 8.49696 4.35489 8.44563 4.25002 8.42448C4.14516 8.40334 4.0364 8.4133 3.93713 8.45315C3.83785 8.493 3.75239 8.56099 3.69124 8.64876C3.63009 8.73654 3.59593 8.84027 3.59296 8.9472H3.59136V23.0371C3.59151 23.1464 3.62422 23.2531 3.6853 23.3437C3.74638 23.4343 3.83307 23.5046 3.9343 23.5457C4.03552 23.5868 4.1467 23.5968 4.25365 23.5745C4.36059 23.5521 4.45844 23.4984 4.53472 23.4202L13.6288 18.1696V23.0374C13.629 23.1467 13.6617 23.2534 13.7227 23.344C13.7838 23.4346 13.8705 23.5049 13.9717 23.546C14.073 23.5871 14.1841 23.5972 14.2911 23.5748C14.398 23.5524 14.4959 23.4987 14.5722 23.4205L25.2342 17.2646V24.7469H25.2384C25.2378 24.7594 25.2346 24.7709 25.2346 24.7834C25.2346 24.9983 25.32 25.2045 25.4719 25.3566C25.6238 25.5088 25.8298 25.5945 26.0448 25.5949H27.5974V25.5872C27.7041 25.5872 27.8096 25.5662 27.9081 25.5254C28.0066 25.4846 28.0961 25.4248 28.1715 25.3494C28.2469 25.274 28.3067 25.1845 28.3475 25.086C28.3883 24.9875 28.4093 24.882 28.4093 24.7754C28.409 24.7606 28.4054 24.7472 28.4048 24.7331V24.7331Z" fill="#E4E5E6"/>
</svg>
