<svg width="32" height="32" viewBox="0 0 32 32" fill="none" xmlns="http://www.w3.org/2000/svg">
<path d="M4.436 4.44C4.68997 4.18597 5.02668 4.03151 5.3849 4.00472C5.74312 3.97792 6.09906 4.08057 6.388 4.294L6.556 4.438L27.556 25.438L27.702 25.608C27.917 25.897 28.0209 26.2537 27.9946 26.613C27.9683 26.9722 27.8136 27.31 27.5588 27.5646C27.3039 27.8192 26.966 27.9736 26.6067 27.9996C26.2474 28.0255 25.8908 27.9213 25.602 27.706L25.436 27.56L21.694 23.82C21.33 23.9 20.958 23.952 20.578 23.98L20 24L15.11 23.998L16.554 25.442C16.8086 25.6961 16.9633 26.0332 16.9901 26.3919C17.0169 26.7505 16.914 27.1069 16.7 27.396L16.554 27.564C16.2998 27.8177 15.9629 27.9718 15.6047 27.9983C15.2465 28.0247 14.8907 27.9217 14.602 27.708L14.434 27.564L10.43 23.56C10.176 23.306 10.0215 22.9693 9.99471 22.6111C9.96792 22.2529 10.0706 21.8969 10.284 21.608L10.43 21.438L14.434 17.436C14.5841 17.2849 14.7648 17.1676 14.964 17.092L9.528 11.652C8.39867 12.2938 7.56343 13.3499 7.19909 14.5967C6.83476 15.8435 6.96993 17.1831 7.576 18.332L7.796 18.702C7.99782 19.0421 8.05715 19.4482 7.96108 19.8318C7.86502 20.2155 7.62133 20.5456 7.28304 20.7505C6.94475 20.9554 6.53924 21.0184 6.15475 20.9258C5.77026 20.8331 5.4379 20.5924 5.23 20.256C4.14123 18.5284 3.75528 16.4494 4.1514 14.4461C4.54752 12.4428 5.69565 10.6672 7.36 9.484L4.436 6.56L4.29 6.392C4.07602 6.1029 3.97305 5.74654 3.99985 5.38787C4.02665 5.0292 4.18144 4.6921 4.436 4.438V4.44ZM25.5 11.028C25.7426 11.0279 25.9816 11.0866 26.1965 11.1991C26.4114 11.3116 26.5959 11.4746 26.734 11.674L26.814 11.802C27.5925 13.0636 28.0033 14.5175 28 16C28.0034 17.8985 27.3281 19.7356 26.096 21.18L23.964 19.048C24.6373 18.1747 25.0016 17.1027 25 16C25 15.01 24.712 14.088 24.218 13.312C24.079 13.0845 24.0032 12.824 23.9983 12.5574C23.9934 12.2908 24.0597 12.0278 24.1903 11.7953C24.3209 11.5629 24.511 11.3694 24.7413 11.2349C24.9715 11.1004 25.2334 11.0297 25.5 11.03V11.028ZM16.7 19.388L16.554 19.554L15.112 20.996H18.87L16.898 19.022C16.8493 19.152 16.7826 19.2745 16.7 19.386V19.388ZM15.446 4.434C15.7 4.17997 16.0367 4.02551 16.3949 3.99872C16.7531 3.97192 17.1091 4.07457 17.398 4.288L17.566 4.434L21.57 8.436L21.714 8.606C21.9027 8.86064 22.0058 9.16849 22.0087 9.4854C22.0116 9.80231 21.914 10.112 21.73 10.37L21.57 10.558L18.52 13.608L16.4 11.486L16.888 10.998H15.91L12.912 8H16.888L15.448 6.56L15.302 6.39C15.0886 6.10106 14.9859 5.74512 15.0127 5.38691C15.0395 5.02869 15.194 4.69198 15.448 4.438L15.446 4.434Z" fill="#E4E5E6"/>
</svg>
