<svg width="32" height="32" viewBox="0 0 32 32" fill="none" xmlns="http://www.w3.org/2000/svg">
<path d="M27.8592 8.41312C27.7046 8.41312 27.5654 8.47712 27.4656 8.57984L18.3712 13.8304V8.96288C18.371 8.85363 18.3383 8.74689 18.2773 8.65631C18.2162 8.56572 18.1295 8.49539 18.0283 8.45429C17.927 8.41318 17.8159 8.40317 17.7089 8.42554C17.602 8.4479 17.5041 8.50162 17.4278 8.57984L6.76608 14.7357V7.25344H6.76192C6.76256 7.24096 6.76576 7.22944 6.76576 7.21696C6.76568 7.00198 6.68032 6.79581 6.52843 6.64368C6.37654 6.49154 6.1705 6.40586 5.95552 6.40544H4.40288V6.41312C4.18757 6.41312 3.98107 6.49865 3.82882 6.6509C3.67657 6.80315 3.59104 7.00965 3.59104 7.22496C3.59104 7.23936 3.59456 7.25248 3.5952 7.26688V24.8563H3.60288C3.62144 25.0569 3.71413 25.2434 3.86285 25.3792C4.01156 25.5151 4.2056 25.5906 4.40704 25.591C4.41664 25.591 4.4256 25.5885 4.43488 25.5882H5.89696C5.91968 25.5901 5.94176 25.5949 5.96512 25.5949C6.41312 25.5949 6.77696 25.2314 6.77696 24.783C6.77696 24.7456 6.77088 24.7094 6.76576 24.6733V17.2678L17.4349 23.4278C17.511 23.503 17.6074 23.5544 17.7122 23.5755C17.8171 23.5967 17.9258 23.5867 18.0251 23.5469C18.1244 23.507 18.2099 23.439 18.271 23.3512C18.3321 23.2635 18.3663 23.1597 18.3693 23.0528H18.3709V18.1731L27.4726 23.4282C27.5487 23.5034 27.6451 23.5547 27.75 23.5758C27.8548 23.597 27.9636 23.587 28.0629 23.5472C28.1621 23.5073 28.2476 23.4393 28.3088 23.3516C28.3699 23.2638 28.4041 23.1601 28.407 23.0531H28.4086V8.96288C28.4087 8.8907 28.3945 8.81922 28.3669 8.75252C28.3393 8.68582 28.2989 8.62522 28.2478 8.57416C28.1968 8.52311 28.1362 8.48261 28.0695 8.45498C28.0029 8.42734 27.9314 8.41312 27.8592 8.41312Z" fill="#E4E5E6"/>
</svg>
