<svg width="32" height="32" viewBox="0 0 32 32" fill="none" xmlns="http://www.w3.org/2000/svg">
<path d="M19.616 3.052L19.5 2.948C19.2436 2.74554 18.9217 2.64429 18.5956 2.66346C18.2694 2.68263 17.9616 2.8209 17.7307 3.052L17.6267 3.168C17.4243 3.42423 17.3231 3.74585 17.3423 4.07179C17.3614 4.39773 17.4997 4.70527 17.7307 4.936L19.4627 6.66534H11.9987L11.6787 6.67067C9.2614 6.75294 6.97056 7.77078 5.28927 9.50952C3.60799 11.2483 2.66769 13.572 2.66667 15.9907C2.66281 17.8432 3.21508 19.6542 4.252 21.1893C4.45763 21.4768 4.76905 21.6709 5.11774 21.7288C5.46643 21.7866 5.82384 21.7036 6.11133 21.498C6.39883 21.2924 6.59286 20.981 6.65075 20.6323C6.70863 20.2836 6.62563 19.9262 6.42 19.6387L6.24 19.348C5.64983 18.3353 5.33727 17.1848 5.33386 16.0127C5.33046 14.8406 5.63633 13.6883 6.2206 12.6722C6.80488 11.6561 7.64687 10.812 8.6616 10.2254C9.67633 9.63867 10.8279 9.33005 12 9.33067H19.46L17.7307 11.06L17.6267 11.176C17.4102 11.4422 17.3048 11.7818 17.3324 12.1238C17.3601 12.4659 17.5188 12.784 17.7753 13.012C18.0318 13.24 18.3663 13.3601 18.7093 13.3475C19.0522 13.3348 19.377 13.1903 19.616 12.944L23.624 8.94L23.7267 8.824C23.929 8.56778 24.0302 8.24615 24.0111 7.92021C23.9919 7.59428 23.8537 7.28673 23.6227 7.056L19.616 3.052V3.052ZM27.716 10.7467C27.5452 10.5275 27.3103 10.3673 27.0439 10.2883C26.7776 10.2094 26.4932 10.2157 26.2306 10.3063C25.968 10.397 25.7403 10.5675 25.5795 10.794C25.4186 11.0204 25.3325 11.2915 25.3333 11.5693C25.3333 11.848 25.4187 12.1053 25.5627 12.3173C26.2256 13.3216 26.6042 14.4867 26.6583 15.6888C26.7123 16.8909 26.4398 18.0853 25.8696 19.145C25.2994 20.2047 24.4529 21.0901 23.4199 21.7074C22.3869 22.3246 21.206 22.6506 20.0027 22.6507H12.552L14.2773 20.9307L14.388 20.8027C14.5696 20.5675 14.6674 20.2784 14.666 19.9813C14.6645 19.6842 14.5639 19.3961 14.38 19.1627L14.2773 19.0453L14.1507 18.9333C13.9152 18.7513 13.6256 18.6532 13.328 18.6547C13.0303 18.6561 12.7417 18.757 12.508 18.9413L12.3907 19.0453L8.384 23.0493L8.27333 23.176C8.09142 23.4113 7.99339 23.7006 7.99484 23.998C7.99629 24.2955 8.09713 24.5838 8.28133 24.8173L8.384 24.9333L12.3907 28.9373L12.5173 29.0493C12.7748 29.2482 13.096 29.346 13.4205 29.3245C13.7451 29.303 14.0506 29.1636 14.2795 28.9326C14.5085 28.7015 14.6451 28.3947 14.6636 28.07C14.6821 27.7452 14.5812 27.4249 14.38 27.1693L14.2773 27.0533L12.5387 25.316H20L20.32 25.312C21.9876 25.2547 23.6094 24.7512 25.0163 23.8539C26.4231 22.9567 27.5636 21.6985 28.3188 20.2105C29.074 18.7226 29.4163 17.0593 29.3101 15.3941C29.2038 13.7288 28.6529 12.1226 27.7147 10.7427V10.7467H27.716Z" fill="#E4E5E6"/>
</svg>
