<svg width="32" height="32" viewBox="0 0 32 32" fill="none" xmlns="http://www.w3.org/2000/svg">
<path d="M27.16 8.08L25.63 9.37C27.2018 11.2319 28.0397 13.6037 27.9863 16.0398C27.9329 18.4759 26.9919 20.8087 25.34 22.6L26.81 24C28.7937 21.8505 29.9239 19.0504 29.9884 16.1262C30.0528 13.2019 29.047 10.3548 27.16 8.12V8.08Z" fill="#E4E5E6"/>
<path d="M21.58 12C22.5228 13.118 23.0249 14.5419 22.9917 16.004C22.9586 17.4662 22.3925 18.8659 21.4 19.94L22.87 21.3C24.1929 19.8664 24.9464 17.9988 24.9887 16.0485C25.0311 14.0983 24.3594 12.1997 23.1 10.71L21.58 12ZM18 30C17.8677 29.9995 17.7368 29.9727 17.6149 29.9212C17.4931 29.8697 17.3826 29.7945 17.29 29.7L9.67 22H3C2.73478 22 2.48043 21.8946 2.29289 21.7071C2.10536 21.5196 2 21.2652 2 21V11C2 10.7348 2.10536 10.4804 2.29289 10.2929C2.48043 10.1054 2.73478 10 3 10H9.67L17.29 2.3C17.4774 2.11375 17.7308 2.00921 17.995 2.00921C18.2592 2.00921 18.5126 2.11375 18.7 2.3C18.8884 2.48463 18.9962 2.73623 19 3V29C19 29.2652 18.8946 29.5196 18.7071 29.7071C18.5196 29.8946 18.2652 30 18 30Z" fill="#E4E5E6"/>
</svg>
